<?xml version="1.0" standalone="no"?>
<!DOCTYPE svg PUBLIC "-//W3C//DTD SVG 20010904//EN"
 "http://www.w3.org/TR/2001/REC-SVG-20010904/DTD/svg10.dtd">
<svg version="1.0" xmlns="http://www.w3.org/2000/svg"
 width="1024.000000pt" height="1536.000000pt" viewBox="0 0 1024.000000 1536.000000"
 preserveAspectRatio="xMidYMid meet">

<g transform="translate(0.000000,1536.000000) scale(0.100000,-0.100000)"
fill="#000000" stroke="none">
<path d="M0 7680 l0 -7680 5120 0 5120 0 0 7680 0 7680 -5120 0 -5120 0 0
-7680z m3545 2912 l160 -90 3 -299 2 -300 -140 -111 c-77 -62 -228 -179 -337
-261 l-198 -150 -314 79 c-172 43 -317 84 -322 91 -4 7 -44 159 -88 337 l-82
324 55 67 c77 94 289 298 366 352 88 62 260 165 334 200 l60 29 171 -89 c93
-49 242 -129 330 -179z m1116 227 c95 -47 266 -151 358 -217 76 -53 326 -294
366 -351 l26 -39 -85 -331 c-46 -183 -86 -334 -89 -337 -2 -3 -145 -40 -318
-83 -247 -62 -318 -76 -331 -67 -37 24 -469 355 -561 428 l-97 79 2 301 3 301
95 57 c81 48 540 300 548 300 1 0 39 -18 83 -41z m4155 2 c67 -41 69 -9 -60
-779 -65 -383 -123 -713 -129 -732 -23 -63 -104 -98 -160 -69 -12 6 -110 99
-218 205 -107 107 -202 194 -211 194 -8 0 -492 -479 -1074 -1065 -582 -586
-1073 -1074 -1090 -1085 -44 -28 -111 -27 -150 3 -17 12 -100 93 -185 180
-101 102 -162 157 -175 157 -15 0 -279 -260 -835 -822 -448 -451 -832 -834
-853 -850 -44 -32 -108 -38 -154 -14 -37 20 -146 134 -166 173 -19 38 -20 89
-3 120 19 34 1978 1993 1993 1993 38 0 85 -37 244 -195 96 -95 186 -178 200
-185 24 -13 38 1 519 486 834 841 1391 1415 1391 1432 0 8 -96 113 -214 231
-139 141 -216 226 -220 244 -8 35 11 77 44 95 20 11 1408 297 1460 301 8 0 29
-8 46 -18z m-6146 -1571 l295 -71 34 -92 c18 -51 77 -220 131 -377 54 -157
101 -292 104 -300 4 -10 -23 -55 -71 -121 -43 -59 -131 -178 -195 -266 l-117
-160 -138 18 c-76 10 -194 27 -263 38 -69 11 -150 23 -180 26 -84 10 -86 11
-134 93 -122 208 -213 466 -245 697 l-10 70 43 45 c23 25 109 122 191 215 187
215 235 264 249 260 6 -2 144 -36 306 -75z m2696 8 c83 -86 189 -206 302 -341
58 -69 82 -106 82 -125 0 -38 -27 -186 -46 -250 l-15 -54 -72 69 c-98 95 -142
117 -237 117 -66 1 -84 -3 -142 -32 -58 -28 -101 -67 -328 -296 l-262 -264
-36 46 c-20 26 -73 94 -119 151 -46 57 -83 109 -83 116 0 14 41 130 182 518
74 203 105 277 117 277 9 0 138 31 286 69 149 38 277 69 285 70 9 1 47 -32 86
-71z m-1042 -1130 c58 -73 118 -150 133 -171 l27 -38 -410 -410 -410 -410
-149 29 c-116 22 -151 33 -160 48 -104 170 -295 544 -295 576 0 6 62 95 139
197 76 102 158 214 182 249 l43 62 397 0 398 0 105 -132z"/>
</g>
</svg>
